<?xml version="1.0" encoding="utf-8"?>
<svg xmlns="http://www.w3.org/2000/svg">
  <defs>
    <filter id="filter9065">
      <feGaussianBlur id="feGaussianBlur9067" stdDeviation="10.07462" />
    </filter>
    <linearGradient id="linearGradient4140">
      <stop style="stop-color:#185fdc;stop-opacity:1" offset="0" id="stop4142"/>
      <stop style="stop-color:#76bbff;stop-opacity:1" offset="1" id="stop4144"/>
    </linearGradient>
    <linearGradient x1="450.10458" y1="551.20123" x2="394.05804" y2="306.24689" id="linearGradient4146" href="#linearGradient4140" gradientUnits="userSpaceOnUse"/>
  
      <style>
        .st0 {
          fill: #455a64;
        }
        .st0, .st16, .st2, .st8 {
          stroke: #424242;
          stroke-linecap: round;
          stroke-linejoin: round;
          stroke-miterlimit: 10;
        }
        .st2 {
          fill: #546e7a;
        }
        .st8 {
          fill: #cfd8dc; 
        }
        .st16 {
          fill: #26c6da;
        }

        view + g {
           display: none;
        }

        view:target + g {
          display: inline;
        }
      </style>
  </defs>
  
  <view id="questionMark" viewBox="0 0 419 419" />
  <g>
    <path d="M 636.2045 353.79074 A 259.06165 259.06165 0 1 1  118.08121,353.79074 A 259.06165 259.06165 0 1 1  636.2045 353.79074 z" transform="matrix(0.729,0,0,0.729,-53.702799,-40.741252)" style="opacity:0.77222224;fill:#000000;fill-opacity:0.51315792;stroke:#000000;stroke-width:0;stroke-linejoin:round;stroke-miterlimit:4;stroke-dasharray:none;stroke-opacity:1;filter:url(#filter9065)" id="path8026"/>
    <path d="M 632.16389 353.79074 A 255.02104 255.02104 0 1 1  122.12181,353.79074 A 255.02104 255.02104 0 1 1  632.16389 353.79074 z" transform="matrix(0.729,0,0,0.729,-64.117082,-48.031252)" style="fill:#2655b2;fill-opacity:1;stroke:#000000;stroke-width:0;stroke-linejoin:round;stroke-miterlimit:4;stroke-dasharray:none;stroke-opacity:1" id="path2168"/>
    <path d="M 622.85715 356.64789 A 242.85715 242.85715 0 1 1  137.14285,356.64789 A 242.85715 242.85715 0 1 1  622.85715 356.64789 z" transform="matrix(0.729,0,0,0.729,-66.19994,-50.11411)" style="fill:#daebff;fill-opacity:1;stroke:#000000;stroke-width:0;stroke-linejoin:round;stroke-miterlimit:4;stroke-dasharray:none;stroke-opacity:1" id="path3141"/>
    <path d="M 597.14287 352.36218 A 218.57143 218.57143 0 1 1  160.00002,352.36218 A 218.57143 218.57143 0 1 1  597.14287 352.36218 z" transform="matrix(0.729,0,0,0.729,-66.19994,-45.948393)" style="fill:url(#linearGradient4146);fill-opacity:1;stroke:#000000;stroke-width:0;stroke-linejoin:round;stroke-miterlimit:4;stroke-dasharray:none;stroke-opacity:1" id="path4114"/>
    <path d="M 365.24122,168.10222 C 365.24122,177.64069 293.15424,226.88012 213.19084,228.55968 C 123.7909,230.39749 51.777349,178.37328 52.327284,175.51684 C 67.085999,98.857462 143.31416,48.155468 209.38602,48.454592 C 272.33093,48.742598 346.98467,91.172636 365.24122,168.10222 z " style="opacity:0.85;fill:#ffffff;fill-opacity:0.48026315;stroke:#000000;stroke-width:0;stroke-linecap:butt;stroke-linejoin:bevel;stroke-miterlimit:4;stroke-opacity:1" id="path7085"/>
    <path d="M 229.12652,328.0557 L 229.12652,308.05873 L 209.43873,308.05873 L 191.75092,308.05873 L 192.13025,309.47955 C 192.33887,310.26099 192.51345,320.35962 192.51817,329.47652 L 192.52676,346.05267 L 209.82664,346.05267 L 229.12652,346.05267 L 229.12652,328.0557 z M 223.65009,271.69677 C 224.66449,255.26868 226.21796,247.86094 230.30057,239.98387 C 233.75649,233.31594 237.88821,228.5731 250.3196,217.00376 C 278.17062,191.08405 287.8176,178.31059 292.3536,161.34692 C 293.89804,155.57109 294.04213,154.03526 294.04213,143.34995 C 294.04213,132.73379 293.89195,131.10841 292.39649,125.53875 C 286.34762,103.01058 269.17707,84.372831 246.60528,75.834726 C 222.14511,66.582324 188.5686,67.898451 167.09078,78.951531 C 146.77571,89.406228 133.08179,108.15758 127.20921,133.56214 C 125.19666,142.26836 124.66109,146.41908 125.46671,147.06672 C 126.12791,147.59828 152.12733,150.95718 155.42617,150.93724 C 156.91309,150.92825 157.08525,150.58222 158.12456,145.51406 C 164.46045,114.61658 181.33712,97.805508 207.62484,96.206166 C 221.84963,95.340726 236.14043,100.47291 246.02479,109.99657 C 253.30215,117.00836 257.68814,124.0339 260.55642,133.2736 C 262.46433,139.41961 262.61724,151.09392 260.86578,156.89359 C 257.41621,168.31642 252.39316,174.50061 227.48385,197.99224 C 212.20317,212.40324 206.42155,219.71593 201.42149,230.95625 C 198.39901,237.75088 196.64463,243.71801 195.33811,251.64752 C 194.30712,257.90479 193.36619,275.84744 193.98426,277.46423 C 194.32799,278.36335 196.09533,278.4851 208.80273,278.4851 L 223.23093,278.4851 L 223.65009,271.69677 z " style="fill:#ffffff;fill-opacity:1"/>
  </g>  


    <view id="CameraTripod" viewBox="0 0 61 61" />
    <g>
      <path class="st0" d="M38.8 8.5v20c0 1.7-1.3 3-3 3h-30c-1.7 0-3-1.3-3-3v-20c0-1.7 1.3-3 3-3h30c1.6 0 3 1.3 3 3z"/>
      <path style="fill:none;stroke:#546e7a;stroke-linecap:round;stroke-linejoin:round;stroke-miterlimit:10" d="M4.8 28.5v-20"/>
      <path style="fill:none;stroke:#37474f;stroke-linecap:round;stroke-linejoin:round;stroke-miterlimit:10" d="M10.2 28.5v-20"/>
      <path class="st2" d="M48.2 8.5v20c0 1.7-1.3 3-3 3h-30c-1.7 0-3-1.3-3-3v-20c0-1.7 1.3-3 3-3h30c1.7 0 3 1.3 3 3z"/>
      <path d="M20.5 44h8c.8 0 1.5-.7 1.5-1.5h0c0-.8-.7-1.5-1.5-1.5h-8c-.8 0-1.5.7-1.5 1.5h0c0 .8.7 1.5 1.5 1.5z" style="fill:#b0bec5;stroke:#424242;stroke-linecap:round;stroke-linejoin:round;stroke-miterlimit:10"/>
      <path class="st8" d="M22.5 44h8c.8 0 1.5-.7 1.5-1.5h0c0-.8-.7-1.5-1.5-1.5h-8c-.8 0-1.5.7-1.5 1.5h0c0 .8.7 1.5 1.5 1.5z"/>
      <path transform="rotate(-180 25.5 36.25)" class="st8" d="M23.5 31.5h4V41h-4z"/>
      <path transform="rotate(-180 25.5 52.25)" class="st8" d="M23.5 44h4v16.5h-4z"/>
      <path class="st8" d="M35.5 60.5h4l-8-16.5h-4zm-20 0h-4l8-16.5h4z"/>
      <path class="st2" d="M18 34.5h11c.8 0 1.5-.7 1.5-1.5h0c0-.8-.7-1.5-1.5-1.5H18c-.8 0-1.5.7-1.5 1.5h0c0 .8.7 1.5 1.5 1.5z"/>
      <path class="st0" d="M22 34.5h11c.8 0 1.5-.7 1.5-1.5h0c0-.8-.7-1.5-1.5-1.5H22c-.8 0-1.5.7-1.5 1.5h0c0 .8.7 1.5 1.5 1.5zm13.2-6c-5.5 0-10-4.5-10-10s4.5-10 10-10h13v20h-13z"/>
      <path class="st0" d="M35.2 8.5h6.5c-5.5 0-10 4.5-10 10s4.5 10 10 10h-6.5c-5.5 0-10-4.5-10-10s4.5-10 10-10z"/>
      <circle class="st16" cx="48.2" cy="18.5" r="10"/>
      <circle class="st16" cx="48.2" cy="18.5" r="7.5"/>
      <path d="M48.2 13c-3 0-5.5 2.5-5.5 5.5" style="fill:none;stroke:#80deea;stroke-linecap:round;stroke-linejoin:round;stroke-miterlimit:10"/>
      <path class="st8" d="M18.7 11.5h2c.8 0 1.5-.7 1.5-1.5v0c0-.8-.7-1.5-1.5-1.5h-2c-.8 0-1.5.7-1.5 1.5v0c0 .8.7 1.5 1.5 1.5z"/>
      <path class="st0" d="M11.8 5.5h18l-1.2-3.1C28.1 1.3 27 .5 25.8.5h-9.9c-1.2 0-2.3.7-2.8 1.9l-1.3 3.1z"/>
      <path class="st2" d="M21.2 5.5h18L38 2.4C37.5 1.3 36.4.5 35.2.5h-9.9c-1.2 0-2.3.7-2.8 1.9l-1.3 3.1z"/>
      <path style="fill:none;stroke:#78909c;stroke-linecap:round;stroke-linejoin:round;stroke-miterlimit:10" d="M14.2 28.5v-20"/>
    </g>

    <view id="SelectionTool" viewBox="0 0 128 128"/>
    <g>
      <path d="M122,4.25H108.467A1.749,1.749,0,0,0,106.717,6v5.017h-34.2V6a1.75,1.75,0,0,0-1.75-1.75H57.233A1.75,1.75,0,0,0,55.483,6v5.017h-34.2V6a1.749,1.749,0,0,0-1.75-1.75H6A1.749,1.749,0,0,0,4.25,6V19.533A1.749,1.749,0,0,0,6,21.283h5.017v34.2H6a1.75,1.75,0,0,0-1.75,1.75V70.767A1.75,1.75,0,0,0,6,72.517h5.017v34.2H6a1.749,1.749,0,0,0-1.75,1.75V122A1.749,1.749,0,0,0,6,123.75H19.533a1.749,1.749,0,0,0,1.75-1.75v-5.017h34.2V122a1.75,1.75,0,0,0,1.75,1.75H70.767a1.75,1.75,0,0,0,1.75-1.75v-5.017h34.2V122a1.749,1.749,0,0,0,1.75,1.75H122a1.749,1.749,0,0,0,1.75-1.75V108.467a1.749,1.749,0,0,0-1.75-1.75h-5.02v-34.2H122a1.75,1.75,0,0,0,1.75-1.75V57.233a1.75,1.75,0,0,0-1.75-1.75h-5.02v-34.2H122a1.749,1.749,0,0,0,1.75-1.75V6A1.749,1.749,0,0,0,122,4.25ZM58.983,7.75H69.017V17.783H58.983ZM7.75,7.75H17.783V17.783H7.75Zm0,51.233H17.783V69.017H7.75ZM17.783,120.25H7.75V110.217H17.783Zm51.234,0H58.983V110.217H69.017Zm51.233,0H110.217V110.217H115.2c.01,0,.02,0,.029,0s.02,0,.03,0h4.99Zm0-51.233H110.217V58.983H120.25Zm-6.77-13.534h-5.013a1.75,1.75,0,0,0-1.75,1.75V70.767a1.75,1.75,0,0,0,1.75,1.75h5.013v34.2h-5.013a1.749,1.749,0,0,0-1.75,1.75v5.016h-34.2v-5.016a1.75,1.75,0,0,0-1.75-1.75H57.233a1.75,1.75,0,0,0-1.75,1.75v5.016h-34.2v-5.016a1.749,1.749,0,0,0-1.75-1.75H14.517v-34.2h5.016a1.75,1.75,0,0,0,1.75-1.75V57.233a1.75,1.75,0,0,0-1.75-1.75H14.517v-34.2h5.016a1.749,1.749,0,0,0,1.75-1.75V14.517h34.2v5.016a1.75,1.75,0,0,0,1.75,1.75H70.767a1.75,1.75,0,0,0,1.75-1.75V14.517h34.2v5.016a1.749,1.749,0,0,0,1.75,1.75h5.013Zm6.77-37.7h-4.99c-.01,0-.02,0-.03,0s-.019,0-.029,0h-4.984V7.75H120.25Z"/>
      <path d="M99,27.25H29A1.749,1.749,0,0,0,27.25,29V99A1.749,1.749,0,0,0,29,100.75H99A1.749,1.749,0,0,0,100.75,99V29A1.749,1.749,0,0,0,99,27.25Zm-1.75,70H30.75V30.75h66.5Z"/>
    </g>
    
    <view id="CreateObject" viewBox="0 0 512 512"/>
    <g>
      <path d="M131.7819214,119.9517822L9.0038452,73.9100952l123.8162231-43.9348145l122.3912354,44.7772827L131.7819214,119.9517822z M139.7824097,226.8565674c26.2363281-8.3126221,52.7878418-7.2813721,77.3302612,1.1528931l47.4563599-91.7877197V88.4359741l-124.7866211,45.6967773V226.8565674z M355.0655518,31.3909912l0.2228394,369.1680298L512,334.2352905L355.0655518,31.3909912z M231.9163818,234.3604736c31.6419678,17.5446167,55.333313,43.1380615,58.9142456,81.6102295c-2.4766846,29.2305908-14.5319824,56.1254272-34.5835571,76.6679688c-21.4633789,21.9882812-50.4438477,34.5996094-79.5107422,34.5996094c-29.2763672,0-58.4116211-10.6972656-79.9355469-29.3496094c-22.1449585-19.1901245-34.4203491-44.9130249-34.6334839-72.5001221c0.9888306-39.2595215,18.6270142-71.2250366,61.5481567-92.1143188v-99.1877441L0,87.6930542v164.0061035l67.1557007,30.6694946c-13.0006104,20.1992798-20.5452271,44.2427368-20.5452271,70.0493774c0,71.579834,58.0268555,129.6066895,129.6066895,129.6066895c60.5725708,0,111.4349976-41.5547485,125.6469116-97.710083l35.2151489,16.2443848l-0.2228394-369.1680298L231.9163818,234.3604736z"/>
    </g>

  <view id="RotateCamera" viewBox="0 0 512 452.64"/>
  <g>
    <path d="M368.35 161.02c-33.05-59.34-90.64-98.27-164.75-89.98-69.06 7.72-131.91 57.64-147.19 131.68-12.78 61.99 10.79 121.11 52.63 161.1 48.87 46.7 122.66 67.32 192.61 36.01 35.84-16.05 60.23-36.5 78.47-62.84 1.86-2.46 4.36-6.41 7.83-9 10.07-7.53 23.32 1.42 21.28 12.44-.43 2.36-1.49 4.88-3.36 7.53-15 23.71-31.64 41.83-53.38 58.4-49.84 37.98-114.27 55.13-178.91 41.8-60.24-12.42-109.19-48.92-139.52-97.8C-18.98 264.9-6.89 162.04 48.32 89.93c34.29-44.79 85.22-77.72 147.5-87.26 105.15-16.11 210.71 42.27 244.52 135.32l42.51-13.6c11.78-3.73 24.36 2.79 28.1 14.57a22.33 22.33 0 0 1-.9 15.89l-48.64 108.53c-5.04 11.3-18.29 16.36-29.59 11.32l-1.65-.82-.02.03-106.62-58.85c-10.86-5.96-14.83-19.6-8.87-30.46 3.15-5.74 8.44-9.55 14.34-11l39.35-12.58z"/>
  </g>
   
  <view id="ZoomCamera" viewBox="0 0 24 24" />
  <g fill="none"> 
    <path opacity="0.15" d="M10 17C13.866 17 17 13.866 17 10C17 6.13401 13.866 3 10 3C6.13401 3 3 6.13401 3 10C3 13.866 6.13401 17 10 17Z" fill="#000000"/>
    <path d="M20 20L14.9497 14.9497M14.9497 14.9497C16.2165 13.683 17 11.933 17 10C17 6.13401 13.866 3 10 3C6.13401 3 3 6.13401 3 10C3 13.866 6.13401 17 10 17C11.933 17 13.683 16.2165 14.9497 14.9497ZM7 10H13M10 7V13" stroke="#000000" stroke-width="1.5" stroke-linecap="round" stroke-linejoin="round"/>
  </g>

  <view id="PanCamera" viewBox="0 0 24 24" />
  <g fill="none" stroke="#1237a5" stroke-linecap="round" stroke-linejoin="round">
    <line x1="21.5" x2="18.23" y1="12.02" y2="15.02"/>
    <line x1="21.5" x2="18.24" y1="12.01" y2="8.98"/>
    <line x1="2.5" x2="5.77" y1="11.98" y2="8.98"/>
    <line x1="2.5" x2="5.76" y1="11.99" y2="15.02"/>
    <line x1="11.98" x2="8.98" y1="21.5" y2="18.23"/>
    <line x1="11.99" x2="15.02" y1="21.5" y2="18.24"/>
    <line x1="12.02" x2="15.02" y1="2.5" y2="5.77"/>
    <line x1="12.01" x2="8.98" y1="2.5" y2="5.76"/>
    <line x1="2.95" x2="21.05" y1="12" y2="12"/>
    <line x1="12" x2="12" y1="2.95" y2="21.05"/>
  </g>

</svg>
