<svg xmlns="http://www.w3.org/2000/svg" viewBox="0 0 203.48693 129.27626">

<defs>
  <style>
    g {
      display: none;
    }
    g:target {
      display: inline;
    }
  </style>
</defs>

<g id="yandex" width="100%">
  <path d="m135.63 18.867c-16.977-15.553-34.363-22.533-55.12-16.971-20.759 5.5627-32.324 20.299-39.251 42.257-4.384 13.896-13.629 22.596-13.629 22.596l65.372-18.229 64.757-17.352s-11.385-2.4587-22.129-12.301"/>
  <path d="m202.95 50.798c-5.6827-21.067-55.592-26.04-111.48-11.209-55.937 14.843-96.617 44.269-90.941 65.449 3.9293 14.667 29.145 21.62 62.869 19.464-1.3853-1.236-2.328-2.6907-2.792-4.424-3.076-11.48 17.399-23.345 44.295-30.552 26.896-7.2067 50.403-6.8253 53.403 4.3733 0.46533 1.7333 0.376 3.4653-0.20667 5.228 30.377-15.02 48.824-33.623 44.856-48.329" fill="#4b82d7"/>
  <path d="m114.2 124.4c27.084-7.2573 47.319-19.459 44.317-30.657-3.0013-11.2-26.625-11.649-53.709-4.392-27.083 7.2573-47.343 19.365-44.317 30.657 3.0267 11.293 26.625 11.649 53.709 4.392" fill="#e7e7e7"/>
</g>

<g id="onedrive" transform="scale(0.196 0.196)">
	<path fill="#0364B8" d="M622.292,445.338l212.613-203.327C790.741,69.804,615.338-33.996,443.13,10.168   C365.58,30.056,298.224,78.13,254.209,145.005C257.5,144.922,622.292,445.338,622.292,445.338z"/>
	<path fill="#0078D4" d="M392.776,183.283l-0.01,0.035c-40.626-25.162-87.479-38.462-135.267-38.397   c-1.104,0-2.189,0.07-3.291,0.083C112.064,146.765-1.74,263.423,0.02,405.567c0.638,51.562,16.749,101.743,46.244,144.04   l318.528-39.894l244.209-196.915L392.776,183.283z"/>
	<path fill="#1490DF" d="M834.905,242.012c-4.674-0.312-9.371-0.528-14.123-0.528c-28.523-0.028-56.749,5.798-82.93,17.117   l-0.006-0.022l-128.844,54.22l142.041,175.456l253.934,61.728c54.799-101.732,16.752-228.625-84.98-283.424   c-26.287-14.16-55.301-22.529-85.091-24.546V242.012z"/>
	<path fill="#28A8EA" d="M46.264,549.607C94.359,618.756,173.27,659.966,257.5,659.922h563.281   c76.946,0.022,147.691-42.202,184.195-109.937L609.001,312.798L46.264,549.607z"/>
</g>

<g id="dropbox" fill="#0061ff" transform="translate(27 0) scale(0.645 0.645)">
  <polygon points="58.86 0 0 37.5 58.86 75 117.73 37.5 58.86 0"/>
  <polygon points="176.59 0 117.73 37.5 176.59 75 235.45 37.5 176.59 0"/>
  <polygon points="0 112.5 58.86 150 117.73 112.5 58.86 75 0 112.5"/>
  <polygon points="176.59 75 117.73 112.5 176.59 150 235.45 112.5 176.59 75"/>
  <polygon points="58.86 162.5 117.73 200 176.59 162.5 117.73 125 58.86 162.5"/>
</g>

<g id="folder" fill="none" stroke="black" stroke-width="2" stroke-linecap="round" stroke-linejoin="round" transform="translate(-20 0) scale(9 6)">
  <path d="M22 19a2 2 0 0 1-2 2H4a2 2 0 0 1-2-2V5a2 2 0 0 1 2-2h5l2 3h9a2 2 0 0 1 2 2z"></path>
</g>

</svg>
